<mxfile host="app.diagrams.net" modified="2024-01-02T07:23:58.879Z" agent="Mozilla/5.0 (Windows NT 10.0; Win64; x64) AppleWebKit/537.36 (KHTML, like Gecko) Chrome/120.0.0.0 Safari/537.36 Edg/120.0.0.0" etag="QmeFkf85JslfYIS320h0" version="22.1.15" type="github">
  <diagram name="페이지-1" id="xG3aGmOnRSjGgeYICYWL">
    <mxGraphModel dx="942" dy="783" grid="1" gridSize="10" guides="1" tooltips="1" connect="1" arrows="1" fold="1" page="1" pageScale="1" pageWidth="827" pageHeight="1169" math="0" shadow="0">
      <root>
        <mxCell id="0" />
        <mxCell id="1" parent="0" />
        <mxCell id="t62t33syxWs0_3AeZaYj-1" value="고객코드" style="ellipse;whiteSpace=wrap;html=1;align=center;fontStyle=4;" vertex="1" parent="1">
          <mxGeometry width="100" height="40" as="geometry" />
        </mxCell>
        <mxCell id="t62t33syxWs0_3AeZaYj-2" value="지역" style="whiteSpace=wrap;html=1;align=center;" vertex="1" parent="1">
          <mxGeometry x="363.5" y="250" width="100" height="40" as="geometry" />
        </mxCell>
        <mxCell id="t62t33syxWs0_3AeZaYj-3" value="제품" style="whiteSpace=wrap;html=1;align=center;" vertex="1" parent="1">
          <mxGeometry x="510" y="70" width="100" height="40" as="geometry" />
        </mxCell>
        <mxCell id="t62t33syxWs0_3AeZaYj-4" value="고객" style="whiteSpace=wrap;html=1;align=center;" vertex="1" parent="1">
          <mxGeometry x="170" y="70" width="100" height="40" as="geometry" />
        </mxCell>
        <mxCell id="t62t33syxWs0_3AeZaYj-5" value="고객명" style="ellipse;whiteSpace=wrap;html=1;align=center;" vertex="1" parent="1">
          <mxGeometry y="60" width="100" height="40" as="geometry" />
        </mxCell>
        <mxCell id="t62t33syxWs0_3AeZaYj-6" value="전화번호" style="ellipse;whiteSpace=wrap;html=1;align=center;" vertex="1" parent="1">
          <mxGeometry y="110" width="100" height="40" as="geometry" />
        </mxCell>
        <mxCell id="t62t33syxWs0_3AeZaYj-7" value="주소" style="ellipse;whiteSpace=wrap;html=1;align=center;" vertex="1" parent="1">
          <mxGeometry y="170" width="100" height="40" as="geometry" />
        </mxCell>
        <mxCell id="t62t33syxWs0_3AeZaYj-8" value="지역" style="ellipse;whiteSpace=wrap;html=1;align=center;" vertex="1" parent="1">
          <mxGeometry x="170" y="190" width="100" height="40" as="geometry" />
        </mxCell>
        <mxCell id="t62t33syxWs0_3AeZaYj-9" value="가입일" style="ellipse;whiteSpace=wrap;html=1;align=center;" vertex="1" parent="1">
          <mxGeometry x="170" y="10" width="100" height="40" as="geometry" />
        </mxCell>
        <mxCell id="t62t33syxWs0_3AeZaYj-10" value="" style="endArrow=none;html=1;rounded=0;entryX=0;entryY=0;entryDx=0;entryDy=0;" edge="1" parent="1" target="t62t33syxWs0_3AeZaYj-4">
          <mxGeometry relative="1" as="geometry">
            <mxPoint x="100" y="19.5" as="sourcePoint" />
            <mxPoint x="260" y="19.5" as="targetPoint" />
          </mxGeometry>
        </mxCell>
        <mxCell id="t62t33syxWs0_3AeZaYj-11" value="" style="endArrow=none;html=1;rounded=0;entryX=0.5;entryY=1;entryDx=0;entryDy=0;" edge="1" parent="1" target="t62t33syxWs0_3AeZaYj-9">
          <mxGeometry relative="1" as="geometry">
            <mxPoint x="230" y="70" as="sourcePoint" />
            <mxPoint x="330" y="-70" as="targetPoint" />
            <Array as="points">
              <mxPoint x="280" y="0.5" />
            </Array>
          </mxGeometry>
        </mxCell>
        <mxCell id="t62t33syxWs0_3AeZaYj-12" value="" style="endArrow=none;html=1;rounded=0;entryX=0.12;entryY=1;entryDx=0;entryDy=0;entryPerimeter=0;exitX=0.44;exitY=0.075;exitDx=0;exitDy=0;exitPerimeter=0;" edge="1" parent="1" source="t62t33syxWs0_3AeZaYj-8" target="t62t33syxWs0_3AeZaYj-4">
          <mxGeometry relative="1" as="geometry">
            <mxPoint x="100" y="239.5" as="sourcePoint" />
            <mxPoint x="260" y="239.5" as="targetPoint" />
          </mxGeometry>
        </mxCell>
        <mxCell id="t62t33syxWs0_3AeZaYj-13" value="" style="endArrow=none;html=1;rounded=0;entryX=0;entryY=1;entryDx=0;entryDy=0;" edge="1" parent="1" target="t62t33syxWs0_3AeZaYj-4">
          <mxGeometry relative="1" as="geometry">
            <mxPoint x="100" y="189.5" as="sourcePoint" />
            <mxPoint x="260" y="189.5" as="targetPoint" />
          </mxGeometry>
        </mxCell>
        <mxCell id="t62t33syxWs0_3AeZaYj-14" value="" style="endArrow=none;html=1;rounded=0;entryX=0;entryY=0.75;entryDx=0;entryDy=0;" edge="1" parent="1" target="t62t33syxWs0_3AeZaYj-4">
          <mxGeometry relative="1" as="geometry">
            <mxPoint x="100" y="129.5" as="sourcePoint" />
            <mxPoint x="260" y="129.5" as="targetPoint" />
          </mxGeometry>
        </mxCell>
        <mxCell id="t62t33syxWs0_3AeZaYj-15" value="" style="endArrow=none;html=1;rounded=0;entryX=0;entryY=0.5;entryDx=0;entryDy=0;" edge="1" parent="1" target="t62t33syxWs0_3AeZaYj-4">
          <mxGeometry relative="1" as="geometry">
            <mxPoint x="100" y="79.5" as="sourcePoint" />
            <mxPoint x="260" y="79.5" as="targetPoint" />
          </mxGeometry>
        </mxCell>
        <mxCell id="t62t33syxWs0_3AeZaYj-16" value="제품가격" style="ellipse;whiteSpace=wrap;html=1;align=center;" vertex="1" parent="1">
          <mxGeometry x="720" y="240" width="100" height="40" as="geometry" />
        </mxCell>
        <mxCell id="t62t33syxWs0_3AeZaYj-17" value="제품색상" style="ellipse;whiteSpace=wrap;html=1;align=center;" vertex="1" parent="1">
          <mxGeometry x="720" y="180" width="100" height="40" as="geometry" />
        </mxCell>
        <mxCell id="t62t33syxWs0_3AeZaYj-18" value="제품구분" style="ellipse;whiteSpace=wrap;html=1;align=center;" vertex="1" parent="1">
          <mxGeometry x="720" y="120" width="100" height="40" as="geometry" />
        </mxCell>
        <mxCell id="t62t33syxWs0_3AeZaYj-19" value="제품명" style="ellipse;whiteSpace=wrap;html=1;align=center;" vertex="1" parent="1">
          <mxGeometry x="720" y="60" width="100" height="40" as="geometry" />
        </mxCell>
        <mxCell id="t62t33syxWs0_3AeZaYj-20" value="제품코드&lt;span style=&quot;white-space: pre;&quot;&gt;&#x9;&lt;/span&gt;" style="ellipse;whiteSpace=wrap;html=1;align=center;" vertex="1" parent="1">
          <mxGeometry x="720" width="100" height="40" as="geometry" />
        </mxCell>
        <mxCell id="t62t33syxWs0_3AeZaYj-21" value="제품코드" style="ellipse;whiteSpace=wrap;html=1;align=center;fontStyle=4;" vertex="1" parent="1">
          <mxGeometry x="720" width="100" height="40" as="geometry" />
        </mxCell>
        <mxCell id="t62t33syxWs0_3AeZaYj-22" value="" style="endArrow=none;html=1;rounded=0;exitX=0.6;exitY=0;exitDx=0;exitDy=0;exitPerimeter=0;" edge="1" parent="1" source="t62t33syxWs0_3AeZaYj-3">
          <mxGeometry relative="1" as="geometry">
            <mxPoint x="560" y="19.5" as="sourcePoint" />
            <mxPoint x="720" y="19.5" as="targetPoint" />
          </mxGeometry>
        </mxCell>
        <mxCell id="t62t33syxWs0_3AeZaYj-23" value="" style="endArrow=none;html=1;rounded=0;exitX=0;exitY=0.5;exitDx=0;exitDy=0;" edge="1" parent="1" source="t62t33syxWs0_3AeZaYj-3" target="t62t33syxWs0_3AeZaYj-27">
          <mxGeometry relative="1" as="geometry">
            <mxPoint x="560" y="260" as="sourcePoint" />
            <mxPoint x="720" y="260" as="targetPoint" />
            <Array as="points">
              <mxPoint x="480" y="90" />
            </Array>
          </mxGeometry>
        </mxCell>
        <mxCell id="t62t33syxWs0_3AeZaYj-24" value="" style="endArrow=none;html=1;rounded=0;exitX=1;exitY=1;exitDx=0;exitDy=0;" edge="1" parent="1" source="t62t33syxWs0_3AeZaYj-3">
          <mxGeometry relative="1" as="geometry">
            <mxPoint x="560" y="199.5" as="sourcePoint" />
            <mxPoint x="720" y="199.5" as="targetPoint" />
          </mxGeometry>
        </mxCell>
        <mxCell id="t62t33syxWs0_3AeZaYj-25" value="" style="endArrow=none;html=1;rounded=0;exitX=1;exitY=0.75;exitDx=0;exitDy=0;" edge="1" parent="1" source="t62t33syxWs0_3AeZaYj-3">
          <mxGeometry relative="1" as="geometry">
            <mxPoint x="560" y="139.5" as="sourcePoint" />
            <mxPoint x="720" y="139.5" as="targetPoint" />
          </mxGeometry>
        </mxCell>
        <mxCell id="t62t33syxWs0_3AeZaYj-26" value="" style="endArrow=none;html=1;rounded=0;exitX=1;exitY=0.5;exitDx=0;exitDy=0;" edge="1" parent="1" source="t62t33syxWs0_3AeZaYj-3">
          <mxGeometry relative="1" as="geometry">
            <mxPoint x="560" y="79.5" as="sourcePoint" />
            <mxPoint x="720" y="79.5" as="targetPoint" />
          </mxGeometry>
        </mxCell>
        <mxCell id="t62t33syxWs0_3AeZaYj-28" style="edgeStyle=orthogonalEdgeStyle;rounded=0;orthogonalLoop=1;jettySize=auto;html=1;exitX=0;exitY=0.5;exitDx=0;exitDy=0;" edge="1" parent="1" source="t62t33syxWs0_3AeZaYj-27" target="t62t33syxWs0_3AeZaYj-4">
          <mxGeometry relative="1" as="geometry" />
        </mxCell>
        <mxCell id="t62t33syxWs0_3AeZaYj-27" value="구매" style="shape=rhombus;perimeter=rhombusPerimeter;whiteSpace=wrap;html=1;align=center;" vertex="1" parent="1">
          <mxGeometry x="320" y="60" width="120" height="60" as="geometry" />
        </mxCell>
        <mxCell id="t62t33syxWs0_3AeZaYj-29" value="지역명" style="ellipse;whiteSpace=wrap;html=1;align=center;fontStyle=4;" vertex="1" parent="1">
          <mxGeometry x="290" y="320" width="100" height="40" as="geometry" />
        </mxCell>
        <mxCell id="t62t33syxWs0_3AeZaYj-30" value="지역코드" style="ellipse;whiteSpace=wrap;html=1;align=center;fontStyle=4;" vertex="1" parent="1">
          <mxGeometry x="450" y="320" width="100" height="40" as="geometry" />
        </mxCell>
        <mxCell id="t62t33syxWs0_3AeZaYj-31" value="" style="endArrow=none;html=1;rounded=0;" edge="1" parent="1" source="t62t33syxWs0_3AeZaYj-29">
          <mxGeometry relative="1" as="geometry">
            <mxPoint x="203.5" y="269.5" as="sourcePoint" />
            <mxPoint x="363.5" y="269.5" as="targetPoint" />
          </mxGeometry>
        </mxCell>
        <mxCell id="t62t33syxWs0_3AeZaYj-32" value="" style="endArrow=none;html=1;rounded=0;entryX=0.39;entryY=-0.05;entryDx=0;entryDy=0;entryPerimeter=0;" edge="1" parent="1" target="t62t33syxWs0_3AeZaYj-30">
          <mxGeometry relative="1" as="geometry">
            <mxPoint x="463.5" y="269.5" as="sourcePoint" />
            <mxPoint x="623.5" y="269.5" as="targetPoint" />
          </mxGeometry>
        </mxCell>
      </root>
    </mxGraphModel>
  </diagram>
</mxfile>
